mtllib new-1.mtl
v 0.289688 0.221550 0.276113
v -0.280381 0.221550 0.276113
v 0.260895 0.160777 0.276113
v 0.225266 0.160777 0.276113
v -0.270855 0.221550 0.269390
v 0.225266 0.196407 0.276113
v 0.260895 0.196407 0.276113
v 0.225266 0.160777 0.293928
v -0.206722 0.221550 0.269390
v 0.260895 0.196407 0.311743
v 0.260895 0.160777 0.311743
v 0.225266 0.196407 0.293928
v -0.136290 0.221550 0.267559
v -0.206722 0.225113 0.269390
v -0.270855 0.225113 0.269390
v -0.223664 0.160777 0.293928
v -0.223664 0.196407 0.293928
v -0.132602 0.221550 0.267073
v -0.259293 0.160777 0.311743
v 0.225266 0.196407 0.311743
v -0.129164 0.221550 0.265649
v -0.132602 0.225113 0.267073
v -0.139979 0.221550 0.267073
v -0.259293 0.196407 0.311743
v -0.259293 0.160777 0.293928
v -0.259293 0.196407 0.293928
v -0.223664 0.160777 0.258299
v -0.126213 0.221550 0.263384
v -0.129164 0.225113 0.265649
v -0.136290 0.225113 0.267559
v -0.143416 0.221550 0.265649
v -0.259293 0.196407 0.276113
v -0.223664 0.196407 0.258299
v -0.123948 0.221550 0.260433
v -0.139979 0.225113 0.267073
v -0.259293 0.160777 0.276113
v -0.259293 0.196407 0.258299
vn 0.000000 -1.000000 0.000000
vn -1.000000 0.000000 0.000000
vn 0.000000 0.000000 -1.000000
vn 0.000000 0.000000 1.000000
vn 1.000000 0.000000 0.000000
vn 0.000000 1.000000 0.000000
vn 0.258819 0.000000 0.965926
vn -0.258819 0.000000 0.965926
vn 0.500000 0.000000 0.866025
vn -0.500000 0.000000 0.866025
vn -0.500000 0.000000 -0.866025
vn -0.258819 0.000000 -0.965926
vn 0.258819 0.000000 -0.965926
vn 0.500000 0.000000 -0.866025
usemtl material-0
f 3//1 8//1 4//1
f 8//2 6//2 4//2
f 10//5 3//5 7//5
f 11//1 8//1 3//1
f 6//2 8//2 12//2
f 6//6 10//6 7//6
f 3//5 10//5 11//5
f 11//1 16//1 8//1
f 8//3 17//3 12//3
f 12//6 10//6 6//6
f 10//4 19//4 11//4
f 19//1 16//1 11//1
f 17//3 8//3 16//3
f 17//6 20//6 12//6
f 10//6 12//6 20//6
f 19//4 10//4 24//4
f 16//1 19//1 25//1
f 16//3 26//3 17//3
f 27//5 17//5 16//5
f 26//6 20//6 17//6
f 24//4 10//4 20//4
f 26//2 19//2 24//2
f 19//2 26//2 25//2
f 25//1 27//1 16//1
f 26//3 16//3 25//3
f 17//6 32//6 26//6
f 17//5 27//5 33//5
f 20//6 26//6 24//6
f 32//2 25//2 26//2
f 36//1 27//1 25//1
f 32//6 17//6 37//6
f 27//3 37//3 33//3
f 37//6 17//6 33//6
f 25//2 32//2 36//2
usemtl material-1
f 6//3 4//3 2//3
f 1//1 2//1 5//1
f 7//3 1//3 3//3
f 4//6 8//6 3//6
f 4//5 6//5 8//5
f 1//3 6//3 2//3
f 9//1 1//1 5//1
f 6//3 1//3 7//3
f 7//2 3//2 10//2
f 3//6 8//6 11//6
f 12//5 8//5 6//5
f 13//1 1//1 9//1
f 9//3 5//3 14//3
f 7//1 10//1 6//1
f 11//2 10//2 3//2
f 8//6 16//6 11//6
f 12//4 17//4 8//4
f 6//1 10//1 12//1
f 18//1 1//1 13//1
f 15//3 14//3 5//3
f 11//3 19//3 10//3
f 11//6 16//6 19//6
f 16//4 8//4 17//4
f 12//1 20//1 17//1
f 20//1 12//1 10//1
f 21//1 1//1 18//1
f 18//12 13//3 22//12
f 24//3 10//3 19//3
f 25//6 19//6 16//6
f 17//4 26//4 16//4
f 16//2 17//2 27//2
f 17//1 20//1 26//1
f 20//3 10//3 24//3
f 28//1 1//1 21//1
f 21//11 18//12 29//11
f 30//3 22//12 13//3
f 22//12 29//11 18//12
f 24//5 19//5 26//5
f 25//5 26//5 19//5
f 16//6 27//6 25//6
f 25//4 16//4 26//4
f 26//1 32//1 17//1
f 33//2 27//2 17//2
f 24//1 26//1 20//1
f 34//1 1//1 28//1
f 23//13 31//14 35//13
f 26//5 25//5 32//5
f 25//6 27//6 36//6
f 37//1 17//1 32//1
f 33//4 37//4 27//4
f 33//1 17//1 37//1
f 36//5 32//5 25//5
usemtl material-2
f 2//4 4//4 6//4
f 5//6 2//6 1//6
f 3//4 1//4 7//4
f 2//4 6//4 1//4
f 5//6 1//6 9//6
f 7//4 1//4 6//4
f 9//6 1//6 13//6
f 13//6 1//6 18//6
f 18//6 1//6 21//6
f 21//6 1//6 28//6
f 28//6 1//6 34//6
usemtl material-7
f 14//4 5//4 9//4
f 5//4 14//4 15//4
usemtl material-10
f 22//7 13//4 18//7
f 29//9 18//7 21//9
f 13//4 22//7 30//4
f 18//7 29//9 22//7
f 35//8 31//10 23//8